<svg width="194" height="118" viewBox="0 0 194 118" fill="none" xmlns="http://www.w3.org/2000/svg">
<g clip-path="url('#clip0_286_118')">
<path d="M60.091 46.7974C54.2418 46.7974 49.3268 44.7427 45.3628 40.6333C41.4325 36.4903 39.4631 31.3409 39.4631 25.1935C39.4631 20.6982 40.7087 16.5552 43.2083 12.7645C45.6995 9.00725 49.2006 5.94613 53.7116 3.58948L54.2418 4.35267C50.7912 7.2209 48.359 9.91301 46.9535 12.429C45.5817 14.8863 44.8915 17.8132 44.8915 21.2266C44.8915 25.1767 46.1203 28.9842 48.5862 32.6492C49.7729 31.8525 50.5388 30.8293 50.8922 29.5881C51.0858 28.9842 51.1784 27.6927 51.1784 25.7134V11.2381L64.4085 0C69.1384 2.39019 73.843 3.58109 78.5139 3.58109H78.8001L72.6563 9.40981C69.5508 8.86468 66.2096 7.74925 62.6327 6.06354V40.0965H63.5417C65.9403 40.0965 68.5829 39.543 71.4612 38.4192C74.2722 37.3373 76.8475 35.8193 79.1872 33.8736L79.911 34.7375C74.7603 42.7719 68.1621 46.7807 60.0995 46.7807L60.091 46.7974ZM57.785 18.7357C57.785 20.1699 57.7598 21.3524 57.7177 22.2749C57.6672 23.1974 57.6167 23.8851 57.5494 24.3296C57.482 24.7741 57.3726 25.2186 57.2127 25.6715C57.0528 26.116 56.8424 26.5605 56.5899 27.0134C56.2365 27.6172 55.7063 28.3133 54.9825 29.0932C54.2587 29.8732 53.3413 30.7286 52.222 31.6512L49.4867 33.9491C52.5839 37.4883 56.4889 39.4927 61.1936 39.9707V5.30874L57.785 8.31955V18.7441V18.7357Z" fill="#EAE0CE"></path>
<path d="M98.7548 43.6943C98.5023 43.2498 98.2835 42.6879 98.1067 42.017C97.93 41.3461 97.7785 40.5997 97.6522 39.7694L88.6302 46.9903C85.1459 44.3736 83.4037 41.4299 83.4037 38.1424C83.4037 34.8548 85.2553 30.9886 88.9668 26.7198L89.7832 25.814L83.934 15.4397C84.1865 15.4733 84.4642 15.4901 84.7503 15.4901H85.6593C88.5376 15.4901 91.2055 14.534 93.6714 12.6218C97.5428 14.6262 100.598 15.6326 102.837 15.6326C103.922 15.6326 104.949 15.121 105.908 14.1063L106.868 14.7269C105.782 16.3874 105.092 17.788 104.806 18.937C104.52 20.0524 104.377 21.9813 104.377 24.7237V36.4818C104.377 38.0082 104.427 39.0146 104.52 39.4926C104.747 40.7674 105.336 41.4048 106.296 41.4048C106.742 41.4048 107.381 41.1029 108.214 40.499L108.888 41.4048L101.692 46.9987C100.286 45.7239 99.3102 44.6252 98.7632 43.7027L98.7548 43.6943ZM91.1718 25.7637L97.6522 28.5397V20.5053L86.0885 16.6306L91.1718 25.7637ZM89.0678 34.0832C89.0678 36.725 90.4733 39.2494 93.2927 41.6396L97.6607 38.1508V29.8815L90.4649 26.8707C89.5391 29.2609 89.0762 31.6679 89.0762 34.0916L89.0678 34.0832Z" fill="#EAE0CE"></path>
<path d="M112.902 42.017V41.3042C113.954 40.7003 114.594 39.8365 114.821 38.7211C114.888 38.4024 114.939 37.9663 114.989 37.4044C115.04 36.8509 115.065 36.1548 115.065 35.3245V17.5868H112.523V14.0057H115.065V5.54355C115.865 5.03196 116.849 4.34426 118.011 3.46366C119.181 2.59145 120.527 1.4928 122.067 0.192871L128.64 1.8702L127.588 7.12862L121.882 5.69451V14.0141H126.393V17.5951H121.882V39.4927C122.429 39.9036 122.985 40.3229 123.565 40.7339C124.138 41.1448 124.718 41.5809 125.291 42.0254L127.403 40.4487L128.27 41.3126L121.125 46.9987C118.566 44.6421 115.831 42.9815 112.919 42.0254L112.902 42.017Z" fill="#EAE0CE"></path>
<path d="M131.468 42.688V42.0171C132.495 41.4468 133.151 40.583 133.438 39.434C133.597 38.7044 133.682 37.5386 133.682 35.9452V23.902C133.682 22.1827 133.572 21.1176 133.345 20.6983C133.118 20.2873 132.579 20.0777 131.712 20.0777H131.468L131.132 19.3648C131.258 19.2977 131.376 19.2474 131.493 19.1971C131.603 19.1467 131.737 19.0964 131.897 19.0293C134.044 18.1068 136.148 17.1088 138.226 16.0437C140.305 14.9786 142.367 13.838 144.412 12.6219L152.66 23.2814L140.33 33.5634V39.7779C141.357 40.2224 142.35 40.6836 143.326 41.1617C144.303 41.6397 145.271 42.1513 146.23 42.688L151.12 39.434L151.793 40.3901L141.862 46.9904C138.117 44.6337 134.649 43.1996 131.451 42.688H131.468ZM150.657 0.670984L148.309 6.55002L137.561 8.697L144.757 0.662598H150.657V0.670984ZM140.347 16.7817V31.2654L147.257 25.529L140.347 16.7817Z" fill="#EAE0CE"></path>
<path d="M83.7656 109.345C83.5131 108.9 83.2943 108.339 83.1176 107.668C82.9408 106.997 82.7893 106.25 82.6631 105.42L73.641 112.641C70.1567 110.024 68.4146 107.081 68.4146 103.793C68.4146 100.505 70.2662 96.6392 73.9777 92.3704L74.794 91.4646L68.9448 81.0904C69.1973 81.1239 69.475 81.1407 69.7612 81.1407H70.6701C73.5484 81.1407 76.2164 80.1846 78.6823 78.2725C82.5537 80.2769 85.6087 81.2833 87.8474 81.2833C88.9331 81.2833 89.9599 80.7717 90.9193 79.7569L91.8788 80.3775C90.7931 82.0381 90.103 83.4386 89.8168 84.5876C89.5307 85.703 89.3876 87.6319 89.3876 90.3744V102.132C89.3876 103.659 89.4381 104.665 89.5307 105.143C89.7579 106.418 90.347 107.055 91.3065 107.055C91.7525 107.055 92.3921 106.753 93.2253 106.15L93.8986 107.055L86.7028 112.649C85.2973 111.375 84.3211 110.276 83.774 109.353L83.7656 109.345ZM76.1827 91.4227L82.6631 94.1987V86.1643L71.0994 82.2897L76.1827 91.4227ZM74.0787 99.7339C74.0787 102.376 75.4842 104.9 78.3036 107.29L82.6715 103.801V95.5322L75.4757 92.5214C74.55 94.9115 74.0871 97.3185 74.0871 99.7423L74.0787 99.7339Z" fill="#EAE0CE"></path>
<path d="M107.221 83.6734L113.365 78.1802L118.255 84.2521L113.601 88.5041L109.62 83.5308L106.935 85.8707V104.992L110.201 107.433L113.365 104.992L114.325 106.041L106.077 112.641C103.266 109.898 100.48 108.288 97.728 107.81V107.047C98.2077 106.762 98.5948 106.46 98.9062 106.141C99.2092 105.823 99.4533 105.445 99.6216 105.017C99.7899 104.59 99.9162 104.095 99.9835 103.533C100.051 102.979 100.076 102.317 100.076 101.545V87.8751C100.076 86.6675 100.026 85.8372 99.933 85.3927C99.7394 84.6295 99.2429 83.9418 98.4434 83.338L96.4319 85.0153L95.6155 84.0592L102.424 78.2724C104.596 79.4801 106.195 81.2832 107.221 83.6734Z" fill="#EAE0CE"></path>
<path d="M120.898 108.917V108.154C121.731 107.45 122.269 106.686 122.53 105.856C122.69 105.219 122.774 104.263 122.774 102.988V89.217C122.774 87.7829 122.665 86.852 122.438 86.4243C122.21 85.9966 121.672 85.7785 120.805 85.7785H120.132V85.0153C123.709 83.8999 127.201 81.6523 130.593 78.2725L138.512 82.7174L135.154 87.7326L129.49 84.5289V105.177L135.34 107.852L138.218 105.512L138.984 106.418L131.165 112.633C128.06 110.527 124.643 109.286 120.898 108.9V108.917Z" fill="#EAE0CE"></path>
<path d="M172.8 108.339V107.668C173.827 107.097 174.483 106.234 174.769 105.085C174.929 104.355 175.013 103.189 175.013 101.596V89.5526C175.013 87.8333 174.904 86.7682 174.677 86.3489C174.449 85.938 173.911 85.7283 173.044 85.7283H172.8L172.463 85.0154C172.589 84.9483 172.707 84.898 172.825 84.8477C172.934 84.7974 173.069 84.7471 173.237 84.68C175.375 83.7574 177.488 82.7594 179.566 81.6943C181.645 80.6292 183.707 79.4886 185.752 78.2726L194 88.932L181.67 99.214V105.429C182.697 105.873 183.69 106.334 184.666 106.812C185.643 107.29 186.611 107.802 187.57 108.339L192.46 105.085L193.133 106.041L183.202 112.641C179.457 110.284 175.989 108.85 172.791 108.339H172.8ZM191.989 66.3216L189.64 72.2007L178.893 74.3476L186.089 66.3132H191.989V66.3216ZM181.679 82.4324V96.9161L188.588 91.1796L181.679 82.4324Z" fill="#EAE0CE"></path>
<path d="M62.0857 105.47L60.1164 107.047C59.1569 106.535 58.5846 106.024 58.391 105.521C58.1975 105.043 58.1049 103.835 58.1049 101.889V79.9918C58.1049 76.9642 58.2816 74.8256 58.6351 73.5844C59.0223 72.4019 59.9312 71.0181 61.3704 69.4246L60.1248 68.5189C59.4178 69.1562 58.8371 69.7014 58.3742 70.1459C57.9113 70.5904 57.5494 70.9426 57.297 71.1942L50.3452 65.6506L38.832 73.9199C38.6721 71.5968 38.3018 69.953 37.7295 68.9969C37.0898 67.9486 35.8443 66.8919 33.9843 65.8435L33.0754 66.3719C30.357 67.8983 28.194 69.1227 26.5781 70.0285C24.9622 70.9342 23.9018 71.5548 23.3884 71.8651C22.4626 72.4103 21.6042 72.9722 20.8215 73.5592C20.0388 74.1463 19.2898 74.7501 18.5912 75.354C16.7649 76.981 15.4436 78.8428 14.6104 80.9479C13.8109 83.0529 13.3985 85.8037 13.3648 89.2171C12.2118 89.3429 11.2103 89.5442 10.3687 89.8125C9.51864 90.0809 8.7696 90.4332 8.11314 90.8609C7.45669 91.2886 6.88439 91.8169 6.38784 92.4376C5.89129 93.0582 5.45365 93.7962 5.06651 94.66L6.21952 95.4735C7.3052 94.1317 8.49187 93.4691 9.77112 93.4691C11.4964 93.4691 13.0366 94.4252 14.3747 96.3373C15.7466 98.216 16.4367 100.447 16.4367 103.03C16.4367 105.227 15.9401 106.879 14.947 107.978C13.9539 109.077 12.3549 109.756 10.1498 110.008C7.81858 110.259 6.17744 110.922 5.23483 111.995C4.29223 113.06 3.82092 114.771 3.82092 117.136V118H5.20958C5.5294 116.054 6.6824 115.081 8.66019 115.081C9.33348 115.081 9.93944 115.149 10.4865 115.274C12.4979 115.367 13.7014 115.417 14.0802 115.417C20.5438 115.417 23.7671 111.609 23.7671 103.994V81.4762C23.7671 78.0042 24.0701 75.6475 24.6761 74.3979C25.3157 73.0896 26.8306 71.7226 29.2376 70.2884C30.6431 71.211 31.51 72.0916 31.8298 72.9218C32.1412 73.6766 32.3011 75.463 32.3095 78.2725V100.355C32.3095 102.393 32.0065 103.718 31.4006 104.321C31.1144 104.573 30.8619 104.774 30.6599 104.917C30.4495 105.059 30.2812 105.177 30.155 105.278V106.091C31.5015 107.081 32.764 108.112 33.9422 109.202C35.1289 110.284 36.2314 111.433 37.2498 112.641L48.2328 103.03L47.2229 101.931L44.9168 103.986V71.1942L46.4486 70.0956L51.1027 73.685V102.56C51.1027 105.621 51.3552 107.726 51.8686 108.867C52.3819 110.016 53.6612 111.274 55.7063 112.641L63.2387 106.712L62.0857 105.47ZM22.3111 81.5265V101.604C22.3111 105.043 21.9408 107.324 21.2086 108.439C20.4764 109.555 19.0204 110.117 16.8407 110.117C16.8743 110.117 16.7313 110.117 16.4114 110.091C16.0916 110.075 15.6119 110.049 14.9723 110.016C16.9248 109.253 18.2209 108.171 18.8605 106.762C19.4665 105.42 19.7695 102.871 19.7695 99.1133V86.0134C19.7695 81.8368 19.963 79.0944 20.3418 77.7945C20.7289 76.5197 21.7304 75.2282 23.3632 73.9199C22.6562 75.5133 22.3111 78.0461 22.3111 81.5182V81.5265ZM43.5198 85.4599V104.942C42.9138 105.546 42.2742 105.848 41.6009 105.848C40.5489 105.848 39.8419 105.387 39.4884 104.464C39.1686 103.541 39.0087 101.663 39.0087 98.8198V75.4882L43.5198 72.2341V85.4431V85.4599Z" fill="#EAE0CE"></path>
<path d="M100.438 68.2002C100.438 68.2002 100.539 68.2338 100.615 68.1667C100.69 68.108 100.775 68.0409 100.859 67.957C100.943 67.8731 101.035 67.7641 101.162 67.6299L99.4533 70.624C99.1924 70.582 98.9315 70.4982 98.6706 70.3556C98.4517 70.2382 98.2161 70.0621 97.9636 69.8356C97.7111 69.6092 97.4839 69.2905 97.2903 68.8963C97.0126 69.1144 96.7349 69.3576 96.4655 69.6259C96.1962 69.8943 95.9269 70.2298 95.6744 70.624C95.2115 70.5065 94.7571 70.3388 94.2942 70.1124C93.8902 69.9363 93.4694 69.7014 93.0318 69.4079C92.5941 69.1228 92.1901 68.7537 91.8282 68.3176C91.6683 68.5608 91.4916 68.7705 91.2896 68.9466C91.0876 69.1227 90.8856 69.2653 90.6921 69.366C90.4733 69.4834 90.246 69.584 90.002 69.6679C90.3386 69.5253 90.6079 69.2905 90.8099 68.9466C91.0119 68.6112 91.1634 68.2505 91.2728 67.8815C91.3822 67.5125 91.4579 67.1519 91.5 66.808C91.5421 66.4558 91.5589 66.1958 91.5589 66.0197L91.5926 57.1382V56.6015C92.0134 56.526 92.4342 56.3751 92.855 56.1486C93.2169 55.9473 93.6041 55.679 94.0249 55.3267C94.4457 54.9745 94.8581 54.5048 95.2536 53.9094L96.7517 54.748V51.6114C96.4487 51.4521 96.1626 51.2424 95.8848 50.9824L97.7111 48.9529C98.0309 49.389 98.3255 49.7161 98.5948 49.9257C98.8641 50.1354 99.1082 50.2864 99.327 50.387C99.5711 50.4876 99.7899 50.538 99.9835 50.538C99.9414 50.6386 99.8909 50.7309 99.832 50.8063C99.7731 50.8902 99.6973 50.9741 99.6216 51.0579C99.5374 51.1502 99.4533 51.2424 99.3523 51.3431V65.6675C99.3523 66.1287 99.3859 66.5061 99.4533 66.8164C99.5206 67.1267 99.6132 67.3783 99.7226 67.5628C99.832 67.7557 99.9498 67.8983 100.084 67.9989C100.211 68.0996 100.329 68.1667 100.43 68.2086L100.438 68.2002ZM96.7433 58.7149C96.7264 58.3124 96.6507 58.044 96.5329 57.9098C96.415 57.7672 96.2299 57.6247 95.9942 57.4653L94.1679 56.3918V65.7849C94.1679 66.2797 94.2942 66.6822 94.5551 66.9842C94.816 67.2861 95.119 67.5209 95.4556 67.7054C95.8175 67.9235 96.2467 68.0744 96.7433 68.1499V58.7317V58.7149Z" fill="#EAE0CE"></path>
<path d="M111.446 68.2003C111.446 68.2003 111.547 68.2338 111.623 68.1667C111.699 68.108 111.783 68.0409 111.867 67.957C111.951 67.8732 112.044 67.7642 112.17 67.63L110.462 70.624C110.201 70.5821 109.94 70.4982 109.679 70.3556C109.46 70.2382 109.224 70.0621 108.972 69.8356C108.719 69.6092 108.492 69.2905 108.299 68.8963C108.021 69.1144 107.743 69.3576 107.474 69.626C107.205 69.8944 106.935 70.2298 106.683 70.624C106.22 70.5066 105.765 70.3388 105.302 70.1124C104.899 69.9363 104.478 69.7015 104.04 69.4079C103.602 69.1228 103.198 68.7538 102.837 68.3177C102.677 68.5609 102.5 68.7705 102.298 68.9467C102.096 69.1228 101.894 69.2654 101.7 69.366C101.482 69.4834 101.254 69.5841 101.01 69.6679C101.347 69.5253 101.616 69.2905 101.818 68.9467C102.02 68.6112 102.172 68.2506 102.281 67.8816C102.39 67.5126 102.466 67.1519 102.508 66.8081C102.55 66.4558 102.567 66.1959 102.567 66.0197L102.601 56.568C102.441 56.4925 102.29 56.4003 102.155 56.3164C102.012 56.2241 101.86 56.0983 101.7 55.939L103.535 53.9094C103.855 54.3455 104.149 54.6726 104.419 54.8823C104.688 55.0919 104.932 55.2429 105.151 55.3435C105.395 55.4442 105.614 55.4945 105.807 55.4945C105.765 55.5951 105.715 55.6874 105.656 55.7629C105.597 55.8467 105.521 55.9306 105.446 56.0145C105.37 56.0983 105.277 56.199 105.176 56.2996V65.7765C105.176 66.2713 105.302 66.6739 105.563 66.9758C105.824 67.2777 106.127 67.5126 106.464 67.6971C106.826 67.9151 107.255 68.0661 107.752 68.1416V56.568C107.608 56.4925 107.465 56.4003 107.314 56.3164C107.162 56.2241 107.011 56.0983 106.851 55.939L108.711 53.9094C109.031 54.3455 109.325 54.6726 109.595 54.8823C109.864 55.0919 110.108 55.2429 110.327 55.3435C110.571 55.4442 110.79 55.4945 110.983 55.4945C110.941 55.5951 110.891 55.6874 110.832 55.7629C110.773 55.8383 110.697 55.9306 110.621 56.0145C110.537 56.1067 110.453 56.199 110.352 56.2996V65.6591C110.352 66.1204 110.386 66.4978 110.453 66.8081C110.52 67.1184 110.613 67.37 110.722 67.5545C110.832 67.7474 110.95 67.89 111.084 67.9906C111.211 68.0912 111.328 68.1583 111.429 68.2003H111.446Z" fill="#EAE0CE"></path>
<path d="M167.262 107.659L170.182 105.319L169.223 104.271L166.277 106.535L165.553 105.705V103.055C165.57 102.686 165.596 102.325 165.596 101.94V88.4622C165.596 85.6611 165.309 83.6483 164.729 82.4406C164.215 81.2329 162.902 79.8407 160.798 78.2808L151.297 86.0217V73.8778C151.297 71.9321 151.566 70.4561 152.113 69.4329C152.66 68.4098 153.746 67.4285 155.378 66.4724L154.991 65.6589C151.44 66.2292 148.789 67.5711 147.03 69.6761C145.203 67.9904 143.562 66.875 142.089 66.3299L141.559 67.2356C142.746 68.2588 143.512 69.1981 143.865 70.0535C144.252 70.9174 144.437 72.2173 144.437 73.9701V105.764L141.753 108.011L147.459 112.649L153.451 108.255L151.297 105.772V87.5564L156.481 83.4973C157.44 84.3276 158.063 85.0908 158.349 85.7953C158.543 86.3655 158.635 87.3384 158.635 88.7138V105.017C158.635 105.286 158.635 105.529 158.619 105.789L156.001 107.978L158.282 109.831L158.534 110.041L158.669 110.15L161.699 112.616L167.237 107.684L167.262 107.659Z" fill="#EAE0CE"></path>
<path d="M0.126226 72.6284C-0.462903 74.9683 1.17824 70.4563 2.26392 70.104C3.3496 69.7518 9.40079 78.5997 12.4558 77.6101C15.5193 76.6204 20.7036 70.6995 21.4443 70.1711C22.1849 69.6428 17.6318 71.882 16.1253 69.1899C14.6104 66.4978 10.638 62.2877 8.43294 63.0928C6.22791 63.8979 1.22874 68.2254 0.126226 72.6284Z" fill="#EAE0CE"></path>
<path d="M79.1452 59.3606H37.0814V60.1993H79.1452V59.3606Z" fill="#EAE0CE"></path>
<path d="M165.082 59.3606H123.018V60.1993H165.082V59.3606Z" fill="#EAE0CE"></path>
</g>
<defs>
<clipPath id="clip0_286_118">
<rect width="194" height="118" fill="white"></rect>
</clipPath>
</defs>
</svg>
