<svg width="318" height="194" viewBox="0 0 318 194" fill="none" xmlns="http://www.w3.org/2000/svg">
<g clip-path="url('#clip0_286_211')">
<path d="M98.4999 76.9382C88.912 76.9382 80.8555 73.5601 74.3578 66.8038C67.9153 59.9925 64.6871 51.5265 64.6871 41.4198C64.6871 34.0293 66.7289 27.2179 70.8261 20.9856C74.9096 14.8085 80.6485 9.77584 88.0429 5.90135L88.912 7.15608C83.2559 11.8716 79.269 16.2977 76.9651 20.4341C74.7165 24.4741 73.5852 29.2861 73.5852 34.8979C73.5852 41.3922 75.5994 47.652 79.6415 53.6775C81.5866 52.3676 82.842 50.6854 83.4214 48.6448C83.7387 47.652 83.8905 45.5286 83.8905 42.2746V18.4762L105.577 0C113.33 3.92964 121.042 5.88756 128.698 5.88756H129.167L119.097 15.4704C114.006 14.5741 108.529 12.7403 102.666 9.96887V65.9214H104.156C108.088 65.9214 112.42 65.0114 117.138 63.1638C121.745 61.3851 125.967 58.8894 129.802 55.6905L130.988 57.1107C122.545 70.3198 111.73 76.9106 98.5137 76.9106L98.4999 76.9382ZM94.7199 30.8028C94.7199 33.1606 94.6785 35.1048 94.6096 36.6215C94.5268 38.1382 94.444 39.2688 94.3337 39.9996C94.2233 40.7303 94.044 41.4611 93.7818 42.2057C93.5197 42.9365 93.1748 43.6672 92.761 44.4118C92.1816 45.4045 91.3124 46.549 90.126 47.8313C88.9396 49.1136 87.4359 50.52 85.6011 52.0367L81.1176 55.8146C86.1943 61.6333 92.5954 64.9286 100.307 65.7146V8.72793L94.7199 13.6779V30.8166V30.8028Z" fill="#2C1315"></path>
<path d="M161.876 71.8365C161.462 71.1057 161.104 70.1819 160.814 69.0789C160.524 67.9758 160.276 66.7487 160.069 65.3836L145.28 77.2553C139.569 72.9534 136.713 68.1137 136.713 62.7087C136.713 57.3037 139.748 50.9474 145.832 43.9292L147.17 42.4401L137.583 25.3841C137.996 25.4392 138.452 25.4668 138.921 25.4668H140.411C145.129 25.4668 149.502 23.8949 153.544 20.7512C159.89 24.0466 164.898 25.7012 168.567 25.7012C170.347 25.7012 172.03 24.8601 173.603 23.1917L175.175 24.2121C173.396 26.9421 172.264 29.2448 171.795 31.1337C171.326 32.9676 171.092 36.1389 171.092 40.6476V59.9787C171.092 62.4881 171.175 64.1427 171.326 64.9286C171.699 67.0244 172.664 68.0723 174.237 68.0723C174.968 68.0723 176.017 67.576 177.383 66.5832L178.486 68.0723L166.691 77.2691C164.387 75.1733 162.787 73.367 161.89 71.8503L161.876 71.8365ZM149.447 42.3573L160.069 46.9212V33.7121L141.114 27.342L149.447 42.3573ZM145.998 56.0352C145.998 60.3785 148.302 64.5288 152.923 68.4584L160.083 62.7225V49.1273L148.288 44.1774C146.77 48.107 146.012 52.0642 146.012 56.049L145.998 56.0352Z" fill="#2C1315"></path>
<path d="M185.067 69.0789V67.9069C186.791 66.9142 187.839 65.494 188.212 63.6601C188.322 63.1362 188.405 62.4192 188.488 61.4954C188.571 60.5854 188.612 59.4409 188.612 58.0759V28.9139H184.446V23.0263H188.612V9.11401C189.923 8.27293 191.537 7.1423 193.44 5.69454C195.358 4.26056 197.565 2.45431 200.09 0.317139L210.864 3.07478L209.14 11.72L199.786 9.3622V23.0401H207.181V28.9277H199.786V64.9287C200.683 65.6043 201.594 66.2937 202.546 66.9693C203.484 67.6449 204.435 68.3619 205.374 69.0927L208.836 66.5005L210.257 67.9207L198.545 77.2691C194.351 73.3946 189.867 70.6645 185.094 69.0927L185.067 69.0789Z" fill="#2C1315"></path>
<path d="M215.499 70.182V69.079C217.183 68.1414 218.259 66.7212 218.728 64.8322C218.99 63.6326 219.128 61.7161 219.128 59.0963V39.2965C219.128 36.4699 218.948 34.7188 218.576 34.0294C218.203 33.3537 217.32 33.009 215.9 33.009H215.499L214.948 31.837C215.155 31.7267 215.348 31.644 215.541 31.5613C215.72 31.4786 215.941 31.3958 216.203 31.2855C219.721 29.7688 223.17 28.128 226.577 26.3769C229.985 24.6258 233.365 22.7506 236.717 20.7513L250.237 38.2761L230.026 55.1805V65.3975C231.709 66.1283 233.337 66.8867 234.937 67.6726C236.538 68.4585 238.124 69.2996 239.697 70.182L247.712 64.8322L248.816 66.4041L232.537 77.2554C226.398 73.3809 220.714 71.0231 215.472 70.182H215.499ZM246.953 1.10314L243.104 10.7687L225.487 14.2985L237.283 1.08936H246.953V1.10314ZM230.054 27.5903V51.4025L241.38 41.9714L230.054 27.5903Z" fill="#2C1315"></path>
<path d="M137.307 179.771C136.893 179.04 136.534 178.116 136.244 177.013C135.955 175.91 135.706 174.683 135.499 173.318L120.711 185.189C114.999 180.887 112.144 176.048 112.144 170.643C112.144 165.238 115.179 158.881 121.262 151.863L122.601 150.374L113.013 133.318C113.427 133.373 113.882 133.401 114.351 133.401H115.841C120.559 133.401 124.932 131.829 128.974 128.685C135.32 131.981 140.328 133.635 143.997 133.635C145.777 133.635 147.46 132.794 149.033 131.126L150.605 132.146C148.826 134.876 147.695 137.179 147.226 139.068C146.756 140.902 146.522 144.073 146.522 148.582V167.913C146.522 170.422 146.605 172.077 146.756 172.863C147.129 174.959 148.095 176.006 149.667 176.006C150.398 176.006 151.447 175.51 152.813 174.517L153.916 176.006L142.121 185.203C139.817 183.107 138.217 181.301 137.32 179.784L137.307 179.771ZM124.877 150.305L135.499 154.869V141.66L116.544 135.29L124.877 150.305ZM121.428 163.969C121.428 168.313 123.732 172.463 128.353 176.392L135.513 170.657V157.061L123.718 152.111C122.2 156.041 121.442 159.998 121.442 163.983L121.428 163.969Z" fill="#2C1315"></path>
<path d="M175.755 137.565L185.825 128.534L193.841 138.516L186.212 145.507L179.686 137.331L175.286 141.177V172.615L180.638 176.627L185.825 172.615L187.398 174.338L173.879 185.189C169.271 180.681 164.705 178.033 160.193 177.247V175.993C160.98 175.524 161.614 175.028 162.125 174.504C162.621 173.98 163.021 173.359 163.297 172.656C163.573 171.953 163.78 171.139 163.891 170.215C164.001 169.305 164.042 168.216 164.042 166.948V144.473C164.042 142.487 163.96 141.122 163.808 140.392C163.491 139.137 162.677 138.006 161.366 137.013L158.069 139.771L156.731 138.199L167.891 128.685C171.451 130.671 174.072 133.635 175.755 137.565Z" fill="#2C1315"></path>
<path d="M198.172 179.067V177.813C199.538 176.654 200.421 175.4 200.849 174.035C201.111 172.987 201.249 171.415 201.249 169.319V146.679C201.249 144.321 201.069 142.791 200.697 142.087C200.324 141.384 199.442 141.026 198.021 141.026H196.917V139.771C202.78 137.937 208.505 134.242 214.065 128.685L227.046 135.993L221.542 144.238L212.258 138.971V172.918L221.845 177.316L226.564 173.469L227.819 174.959L215.003 185.176C209.912 181.715 204.311 179.674 198.172 179.04V179.067Z" fill="#2C1315"></path>
<path d="M283.249 178.116V177.013C284.932 176.075 286.008 174.655 286.477 172.766C286.739 171.567 286.877 169.65 286.877 167.03V147.231C286.877 144.404 286.698 142.653 286.325 141.963C285.953 141.288 285.07 140.943 283.649 140.943H283.249L282.697 139.771C282.904 139.661 283.097 139.578 283.29 139.495C283.47 139.413 283.691 139.33 283.966 139.22C287.471 137.703 290.933 136.062 294.341 134.311C297.748 132.56 301.128 130.685 304.48 128.685L318 146.21L297.79 163.115V173.332C299.473 174.062 301.1 174.821 302.701 175.607C304.301 176.393 305.887 177.234 307.46 178.116L315.475 172.766L316.579 174.338L300.3 185.189C294.161 181.315 288.478 178.957 283.235 178.116H283.249ZM314.703 109.037L310.854 118.703L293.237 122.233L305.032 109.023H314.703V109.037ZM297.803 135.524V159.337L309.129 149.905L297.803 135.524Z" fill="#2C1315"></path>
<path d="M101.769 173.4L98.5413 175.993C96.9686 175.152 96.0305 174.31 95.7132 173.483C95.3959 172.697 95.2441 170.712 95.2441 167.513V131.512C95.2441 126.534 95.5338 123.018 96.1133 120.978C96.7478 119.034 98.2378 116.759 100.597 114.139L98.5551 112.65C97.3962 113.698 96.4443 114.594 95.6856 115.325C94.9268 116.055 94.3336 116.634 93.9198 117.048L82.5247 107.934L63.6525 121.529C63.3903 117.71 62.7833 115.007 61.8452 113.436C60.7968 111.712 58.7551 109.975 55.7062 108.251L54.2163 109.12C49.7604 111.629 46.2149 113.642 43.5662 115.132C40.9175 116.621 39.1792 117.641 38.3377 118.151C36.8202 119.047 35.4131 119.971 34.1301 120.936C32.8471 121.902 31.6193 122.894 30.4743 123.887C27.4807 126.562 25.3148 129.623 23.949 133.084C22.6384 136.545 21.9625 141.067 21.9073 146.679C20.0173 146.886 18.3756 147.217 16.9961 147.658C15.6027 148.099 14.3749 148.678 13.2989 149.381C12.2228 150.085 11.2847 150.953 10.4708 151.974C9.65688 152.994 8.93951 154.207 8.30492 155.627L10.1949 156.965C11.9745 154.759 13.9197 153.67 16.0166 153.67C18.8447 153.67 21.3693 155.241 23.5627 158.385C25.8114 161.474 26.9426 165.141 26.9426 169.388C26.9426 173.001 26.1287 175.717 24.5008 177.523C22.873 179.329 20.2518 180.446 16.6374 180.86C12.816 181.274 10.1259 182.363 8.58083 184.128C7.03573 185.879 6.26318 188.692 6.26318 192.58V194H8.53944C9.06367 190.801 10.9537 189.202 14.1956 189.202C15.2992 189.202 16.2925 189.312 17.1892 189.519C20.4863 189.671 22.4591 189.753 23.0799 189.753C33.6748 189.753 38.9585 183.493 38.9585 170.974V133.952C38.9585 128.244 39.4551 124.37 40.4484 122.315C41.4969 120.164 43.9801 117.917 47.9256 115.559C50.2294 117.076 51.6504 118.523 52.1746 119.888C52.685 121.129 52.9471 124.066 52.9609 128.685V164.99C52.9609 168.34 52.4643 170.519 51.471 171.511C51.002 171.925 50.5881 172.256 50.257 172.49C49.9121 172.725 49.6362 172.918 49.4293 173.083V174.421C51.6366 176.048 53.7059 177.744 55.6373 179.536C57.5824 181.315 59.3896 183.204 61.0589 185.189L79.062 169.388L77.4066 167.582L73.6266 170.96V117.048L76.1374 115.242L83.7663 121.143V168.616C83.7663 173.649 84.1802 177.109 85.0217 178.985C85.8632 180.874 87.9601 182.942 91.3124 185.189L103.659 175.441L101.769 173.4ZM36.5719 134.035V167.044C36.5719 172.697 35.9649 176.448 34.7647 178.281C33.5645 180.115 31.1779 181.039 27.6048 181.039C27.66 181.039 27.4255 181.039 26.9012 180.998C26.377 180.97 25.5907 180.929 24.5422 180.874C27.7428 179.619 29.8673 177.84 30.9157 175.524C31.909 173.318 32.4057 169.126 32.4057 162.949V141.412C32.4057 134.545 32.7229 130.037 33.3437 127.899C33.9783 125.804 35.62 123.68 38.2963 121.529C37.1375 124.149 36.5719 128.313 36.5719 134.021V134.035ZM71.3365 140.502V172.532C70.3433 173.525 69.2948 174.021 68.1912 174.021C66.4667 174.021 65.3079 173.263 64.7285 171.746C64.2043 170.229 63.9422 167.141 63.9422 162.466V124.108L71.3365 118.758V140.474V140.502Z" fill="#2C1315"></path>
<path d="M164.635 112.126C164.635 112.126 164.801 112.181 164.925 112.07C165.049 111.974 165.187 111.864 165.325 111.726C165.463 111.588 165.615 111.409 165.822 111.188L163.021 116.11C162.594 116.041 162.166 115.904 161.738 115.669C161.38 115.476 160.993 115.187 160.58 114.814C160.166 114.442 159.793 113.918 159.476 113.27C159.021 113.629 158.565 114.028 158.124 114.47C157.683 114.911 157.241 115.462 156.827 116.11C156.068 115.917 155.324 115.642 154.565 115.269C153.903 114.98 153.213 114.594 152.495 114.111C151.778 113.642 151.116 113.036 150.523 112.319C150.261 112.719 149.971 113.063 149.64 113.353C149.309 113.642 148.978 113.877 148.66 114.042C148.302 114.235 147.929 114.401 147.529 114.539C148.081 114.304 148.522 113.918 148.853 113.353C149.185 112.801 149.433 112.208 149.612 111.602C149.792 110.995 149.916 110.402 149.985 109.837C150.054 109.258 150.081 108.83 150.081 108.541L150.136 93.939V93.0565C150.826 92.9324 151.516 92.6842 152.206 92.312C152.799 91.981 153.434 91.5398 154.123 90.9607C154.813 90.3816 155.489 89.6095 156.137 88.6305L158.593 90.0093V84.8526C158.096 84.5906 157.627 84.2459 157.172 83.8184L160.166 80.4817C160.69 81.1987 161.173 81.7364 161.614 82.0811C162.056 82.4258 162.456 82.674 162.814 82.8395C163.215 83.0049 163.573 83.0877 163.891 83.0877C163.822 83.2531 163.739 83.4048 163.642 83.5289C163.546 83.6668 163.421 83.8046 163.297 83.9425C163.159 84.0942 163.021 84.2459 162.856 84.4113V107.962C162.856 108.72 162.911 109.34 163.021 109.851C163.132 110.361 163.284 110.774 163.463 111.078C163.642 111.395 163.835 111.629 164.056 111.795C164.263 111.96 164.456 112.07 164.622 112.139L164.635 112.126ZM158.579 96.5312C158.552 95.8693 158.427 95.4281 158.234 95.2075C158.041 94.9731 157.738 94.7387 157.351 94.4767L154.358 92.7118V108.155C154.358 108.968 154.565 109.63 154.992 110.126C155.42 110.623 155.917 111.009 156.469 111.312C157.062 111.671 157.765 111.919 158.579 112.043V96.5587V96.5312Z" fill="#2C1315"></path>
<path d="M182.68 112.126C182.68 112.126 182.846 112.181 182.97 112.071C183.094 111.974 183.232 111.864 183.37 111.726C183.508 111.588 183.66 111.409 183.866 111.188L181.066 116.111C180.638 116.042 180.211 115.904 179.783 115.669C179.424 115.476 179.038 115.187 178.624 114.814C178.21 114.442 177.838 113.918 177.521 113.27C177.065 113.629 176.61 114.028 176.169 114.47C175.727 114.911 175.286 115.462 174.872 116.111C174.113 115.917 173.368 115.642 172.609 115.269C171.947 114.98 171.257 114.594 170.54 114.111C169.823 113.642 169.16 113.036 168.567 112.319C168.305 112.719 168.015 113.063 167.684 113.353C167.353 113.642 167.022 113.877 166.705 114.042C166.346 114.235 165.974 114.401 165.574 114.539C166.125 114.304 166.567 113.918 166.898 113.353C167.229 112.801 167.477 112.208 167.657 111.602C167.836 110.995 167.96 110.402 168.029 109.837C168.098 109.258 168.126 108.83 168.126 108.541L168.181 93.0015C167.919 92.8774 167.671 92.7257 167.45 92.5878C167.215 92.4362 166.967 92.2293 166.705 91.9674L169.712 88.6306C170.236 89.3476 170.719 89.8853 171.161 90.2301C171.602 90.5748 172.002 90.8229 172.361 90.9884C172.761 91.1539 173.12 91.2366 173.437 91.2366C173.368 91.402 173.285 91.5537 173.189 91.6778C173.092 91.8157 172.968 91.9536 172.844 92.0915C172.72 92.2293 172.568 92.3948 172.402 92.5603V108.141C172.402 108.954 172.609 109.616 173.037 110.113C173.465 110.609 173.961 110.995 174.513 111.298C175.106 111.657 175.81 111.905 176.624 112.029V93.0015C176.389 92.8774 176.155 92.7257 175.906 92.5878C175.658 92.4362 175.41 92.2293 175.148 91.9674L178.196 88.6306C178.721 89.3476 179.204 89.8853 179.645 90.2301C180.086 90.5748 180.487 90.8229 180.845 90.9884C181.245 91.1539 181.604 91.2366 181.921 91.2366C181.852 91.402 181.77 91.5537 181.673 91.6778C181.576 91.8019 181.452 91.9536 181.328 92.0915C181.19 92.2431 181.052 92.3948 180.887 92.5603V107.948C180.887 108.706 180.942 109.327 181.052 109.837C181.163 110.347 181.314 110.761 181.494 111.064C181.673 111.381 181.866 111.616 182.087 111.781C182.294 111.946 182.487 112.057 182.652 112.126H182.68Z" fill="#2C1315"></path>
<path d="M274.172 176.999L278.959 173.152L277.386 171.429L272.558 175.151L271.371 173.786V169.429C271.399 168.823 271.44 168.23 271.44 167.596V145.438C271.44 140.833 270.971 137.523 270.019 135.538C269.178 133.552 267.026 131.264 263.577 128.699L248.002 141.426V121.46C248.002 118.261 248.443 115.835 249.34 114.152C250.237 112.47 252.016 110.857 254.692 109.285L254.058 107.948C248.236 108.885 243.891 111.091 241.007 114.552C238.014 111.781 235.324 109.947 232.909 109.051L232.04 110.54C233.985 112.222 235.241 113.766 235.82 115.173C236.455 116.593 236.758 118.73 236.758 121.612V173.883L232.358 177.578L241.711 185.203L251.533 177.978L248.002 173.897V143.949L256.5 137.275C258.072 138.64 259.093 139.895 259.562 141.053C259.88 141.991 260.031 143.59 260.031 145.852V172.656C260.031 173.097 260.031 173.497 260.004 173.924L255.713 177.523L259.452 180.57L259.866 180.915L260.087 181.094L265.053 185.148L274.13 177.04L274.172 176.999Z" fill="#2C1315"></path>
<path d="M0.206944 119.406C-0.75874 123.253 1.93138 115.835 3.711 115.256C5.49062 114.676 15.4096 129.223 20.4173 127.596C25.4389 125.969 33.9369 116.235 35.1509 115.366C36.3649 114.497 28.9016 118.179 26.4322 113.753C23.949 109.327 17.4375 102.405 13.8231 103.729C10.2087 105.052 2.01415 112.167 0.206944 119.406Z" fill="#2C1315"></path>
<path d="M129.733 97.5928H60.783V98.9716H129.733V97.5928Z" fill="#2C1315"></path>
<path d="M270.599 97.5928H201.649V98.9716H270.599V97.5928Z" fill="#2C1315"></path>
</g>
<defs>
<clipPath id="clip0_286_211">
<rect width="318" height="194" fill="white"></rect>
</clipPath>
</defs>
</svg>
