<svg width="82" height="50" viewBox="0 0 82 50" fill="none" xmlns="http://www.w3.org/2000/svg">
<path d="M25.3985 19.8294C22.9261 19.8294 20.8486 18.9588 19.1731 17.2175C17.5119 15.462 16.6794 13.28 16.6794 10.6752C16.6794 8.77043 17.2059 7.01493 18.2625 5.40867C19.3154 3.81663 20.7953 2.51955 22.702 1.52097L22.9261 1.84435C21.4676 3.0597 20.4395 4.20043 19.8455 5.26652C19.2656 6.30775 18.9739 7.54797 18.9739 8.99431C18.9739 10.6681 19.4933 12.2814 20.5356 13.8344C21.0372 13.4968 21.3609 13.0633 21.5103 12.5373C21.5921 12.2814 21.6312 11.7342 21.6312 10.8955V4.7619L27.2234 0C29.2226 1.01279 31.2111 1.51741 33.1855 1.51741H33.3064L30.7096 3.98721C29.3969 3.75622 27.9846 3.28358 26.4728 2.5693V16.99H26.857C27.8708 16.99 28.9878 16.7555 30.2044 16.2793C31.3926 15.8209 32.4811 15.1777 33.47 14.3532L33.776 14.7193C31.5989 18.1237 28.8099 19.8223 25.402 19.8223L25.3985 19.8294ZM24.4238 7.93888C24.4238 8.54655 24.4131 9.04762 24.3953 9.43852C24.3739 9.82942 24.3526 10.1208 24.3241 10.3092C24.2957 10.4975 24.2494 10.6859 24.1819 10.8778C24.1143 11.0661 24.0253 11.2544 23.9186 11.4463C23.7692 11.7022 23.5451 11.9972 23.2392 12.3276C22.9332 12.6581 22.5455 13.0206 22.0724 13.4115L20.9162 14.3852C22.2253 15.8849 23.8759 16.7342 25.8645 16.9367V2.24947L24.4238 3.52523V7.94243V7.93888Z" fill="#EAE0CE"></path>
<path d="M41.7408 18.5145C41.634 18.3261 41.5416 18.088 41.4669 17.8037C41.3921 17.5194 41.3281 17.2032 41.2748 16.8513L37.4613 19.911C35.9886 18.8023 35.2522 17.555 35.2522 16.1619C35.2522 14.7689 36.0348 13.1307 37.6036 11.3218L37.9487 10.9381L35.4763 6.54217C35.583 6.55639 35.7004 6.5635 35.8214 6.5635H36.2056C37.4222 6.5635 38.5498 6.15838 39.5921 5.34814C41.2285 6.19747 42.5198 6.62391 43.4661 6.62391C43.925 6.62391 44.359 6.40714 44.7645 5.97714L45.17 6.24011C44.7111 6.94374 44.4194 7.5372 44.2985 8.02405C44.1775 8.49669 44.1171 9.31403 44.1171 10.4761V15.4583C44.1171 16.1051 44.1384 16.5315 44.1775 16.7341C44.2736 17.2742 44.5226 17.5443 44.9281 17.5443C45.1167 17.5443 45.387 17.4164 45.7392 17.1605L46.0238 17.5443L42.9823 19.9146C42.3882 19.3744 41.9755 18.9089 41.7443 18.518L41.7408 18.5145ZM38.5356 10.9167L41.2748 12.093V8.68859L36.387 7.04679L38.5356 10.9167ZM37.6463 14.442C37.6463 15.5614 38.2404 16.631 39.4321 17.6438L41.2783 16.1655V12.6616L38.2368 11.3858C37.8455 12.3986 37.6498 13.4185 37.6498 14.4455L37.6463 14.442Z" fill="#EAE0CE"></path>
<path d="M47.7206 17.8036V17.5016C48.1653 17.2457 48.4356 16.8797 48.5317 16.4071C48.5602 16.272 48.5815 16.0872 48.6028 15.8491C48.6242 15.6146 48.6349 15.3196 48.6349 14.9678V7.45183H47.5605V5.93442H48.6349V2.34878C48.9728 2.13201 49.389 1.8406 49.8799 1.46747C50.3744 1.09789 50.9436 0.63236 51.5946 0.081543L54.3728 0.792275L53.9282 3.02042L51.5163 2.41274V5.93798H53.423V7.45539H51.5163V16.734C51.7475 16.9081 51.9823 17.0858 52.2278 17.2599C52.4697 17.4341 52.7151 17.6189 52.957 17.8072L53.8499 17.1391L54.2163 17.5051L51.1961 19.9145C50.1147 18.9159 48.9586 18.2123 47.7277 17.8072L47.7206 17.8036Z" fill="#EAE0CE"></path>
<path d="M55.5681 18.0882V17.8039C56.0021 17.5622 56.2795 17.1962 56.4005 16.7093C56.4681 16.4002 56.5037 15.9062 56.5037 15.231V10.128C56.5037 9.39945 56.4574 8.94814 56.3614 8.77046C56.2653 8.59633 56.0376 8.50748 55.6712 8.50748H55.5681L55.4258 8.20542C55.4791 8.17699 55.5289 8.15567 55.5787 8.13435C55.625 8.11303 55.6819 8.09171 55.7495 8.06328C56.6566 7.67237 57.546 7.24949 58.4246 6.79817C59.3033 6.34686 60.1748 5.86356 61.0392 5.34828L64.5254 9.86498L59.3139 14.2218V16.855C59.7479 17.0434 60.1677 17.2388 60.5804 17.4414C60.993 17.6439 61.4021 17.8607 61.8076 18.0882L63.8744 16.7093L64.159 17.1144L59.9614 19.9112C58.3784 18.9126 56.9127 18.3049 55.561 18.0882H55.5681ZM63.6788 0.284315L62.6863 2.77543L58.1436 3.68517L61.1851 0.280762H63.6788V0.284315ZM59.3211 7.1109V13.2481L62.2416 10.8174L59.3211 7.1109Z" fill="#EAE0CE"></path>
<path d="M35.4052 46.3328C35.2985 46.1445 35.206 45.9064 35.1313 45.6221C35.0566 45.3378 34.9925 45.0215 34.9392 44.6697L31.1257 47.7294C29.653 46.6207 28.9166 45.3733 28.9166 43.9803C28.9166 42.5873 29.6992 40.949 31.268 39.1402L31.6131 38.7564L29.1407 34.3605C29.2475 34.3747 29.3648 34.3819 29.4858 34.3819H29.87C31.0866 34.3819 32.2143 33.9767 33.2566 33.1665C34.8929 34.0158 36.1842 34.4423 37.1305 34.4423C37.5894 34.4423 38.0234 34.2255 38.4289 33.7955L38.8345 34.0585C38.3756 34.7621 38.0839 35.3556 37.9629 35.8424C37.842 36.315 37.7815 37.1324 37.7815 38.2944V43.2767C37.7815 43.9234 37.8028 44.3499 37.842 44.5524C37.938 45.0926 38.187 45.3627 38.5926 45.3627C38.7811 45.3627 39.0515 45.2347 39.4036 44.9789L39.6882 45.3627L36.6467 47.733C36.0526 47.1928 35.64 46.7273 35.4088 46.3364L35.4052 46.3328ZM32.2 38.7386L34.9392 39.9149V36.5105L30.0514 34.8687L32.2 38.7386ZM31.3107 42.2603C31.3107 43.3797 31.9048 44.4494 33.0965 45.4622L34.9427 43.9838V40.4799L31.9012 39.2042C31.5099 40.217 31.3143 41.2369 31.3143 42.2639L31.3107 42.2603Z" fill="#EAE0CE"></path>
<path d="M45.3195 35.4551L47.9163 33.1274L49.9832 35.7003L48.016 37.502L46.3333 35.3947L45.1985 36.3861V44.4885L46.5788 45.5226L47.9163 44.4885L48.3219 44.9327L44.8357 47.7294C43.6476 46.5674 42.4701 45.8851 41.3068 45.6825V45.3591C41.5096 45.2383 41.6732 45.1104 41.8049 44.9753C41.9329 44.8403 42.0361 44.6804 42.1072 44.4992C42.1784 44.3179 42.2317 44.1082 42.2602 43.8702C42.2887 43.6356 42.2993 43.3549 42.2993 43.0279V37.2355C42.2993 36.7237 42.278 36.3719 42.2388 36.1836C42.157 35.8602 41.9471 35.5688 41.6092 35.3129L40.759 36.0237L40.4139 35.6186L43.2918 33.1665C44.2096 33.6783 44.8855 34.4423 45.3195 35.4551Z" fill="#EAE0CE"></path>
<path d="M51.1001 46.1516V45.8282C51.4523 45.5297 51.6799 45.2063 51.7902 44.8545C51.8578 44.5844 51.8934 44.1793 51.8934 43.6391V37.804C51.8934 37.1964 51.8471 36.8019 51.7511 36.6207C51.655 36.4394 51.4274 36.347 51.0609 36.347H50.7764V36.0236C52.2882 35.551 53.7645 34.5986 55.1981 33.1665L58.5456 35.0499L57.1262 37.175L54.7321 35.8175V44.5666L57.2045 45.7003L58.4211 44.7088L58.7448 45.0926L55.44 47.7259C54.1274 46.8339 52.6831 46.3079 51.1001 46.1445V46.1516Z" fill="#EAE0CE"></path>
<path d="M73.0382 45.906V45.6217C73.4722 45.3801 73.7496 45.0141 73.8706 44.5272C73.9382 44.218 73.9737 43.7241 73.9737 43.0489V37.9458C73.9737 37.2173 73.9275 36.766 73.8315 36.5883C73.7354 36.4142 73.5077 36.3254 73.1413 36.3254H73.0382L72.8959 36.0233C72.9492 35.9949 72.999 35.9735 73.0488 35.9522C73.0951 35.9309 73.152 35.9096 73.2231 35.8811C74.1267 35.4902 75.0196 35.0674 75.8983 34.616C76.7769 34.1647 77.6485 33.6814 78.5129 33.1662L81.9991 37.6829L76.7876 42.0396V44.6729C77.2216 44.8612 77.6414 45.0567 78.054 45.2593C78.4667 45.4618 78.8757 45.6786 79.2813 45.906L81.3481 44.5272L81.6327 44.9323L77.435 47.7291C75.852 46.7305 74.3864 46.1228 73.0346 45.906H73.0382ZM81.1489 28.1022L80.1564 30.5933L75.6137 31.503L78.6552 28.0986H81.1489V28.1022ZM76.7911 34.9288V41.0659L79.7117 38.6352L76.7911 34.9288Z" fill="#EAE0CE"></path>
<path d="M26.2415 44.6907L25.4091 45.3587C25.0036 45.142 24.7617 44.9252 24.6799 44.712C24.598 44.5094 24.5589 43.9977 24.5589 43.1732V33.8946C24.5589 32.6118 24.6336 31.7056 24.783 31.1796C24.9467 30.6786 25.3309 30.0922 25.9392 29.417L25.4127 29.0332C25.1139 29.3033 24.8684 29.5343 24.6727 29.7226C24.4771 29.911 24.3241 30.0602 24.2174 30.1668L21.2791 27.8179L16.4126 31.3218C16.345 30.3374 16.1885 29.6409 15.9466 29.2358C15.6763 28.7916 15.1498 28.3438 14.3636 27.8996L13.9794 28.1235C12.8304 28.7703 11.9162 29.2891 11.2332 29.6729C10.5501 30.0567 10.1019 30.3196 9.88493 30.4511C9.49362 30.6821 9.13077 30.9202 8.79994 31.169C8.46911 31.4177 8.15251 31.6736 7.85725 31.9295C7.08531 32.6189 6.52681 33.4078 6.17463 34.2997C5.83669 35.1917 5.66238 36.3573 5.64815 37.8037C5.16079 37.857 4.73747 37.9422 4.38174 38.056C4.02245 38.1697 3.70585 38.3189 3.42837 38.5002C3.1509 38.6814 2.909 38.9053 2.69912 39.1683C2.48924 39.4312 2.30426 39.744 2.14062 40.11L2.62797 40.4547C3.08687 39.8861 3.58845 39.6054 4.12917 39.6054C4.85842 39.6054 5.50941 40.0105 6.07503 40.8207C6.65487 41.6167 6.94657 42.562 6.94657 43.6565C6.94657 44.5876 6.73669 45.2877 6.31693 45.7532C5.89716 46.2187 5.22127 46.5066 4.28925 46.6132C3.30387 46.7198 2.61019 47.0005 2.21177 47.4554C1.81335 47.9067 1.61414 48.6317 1.61414 49.6338V49.9998H2.2011C2.33627 49.1754 2.82363 48.7631 3.6596 48.7631C3.94419 48.7631 4.20031 48.7916 4.43154 48.8449C5.28174 48.884 5.79044 48.9053 5.95052 48.9053C8.68255 48.9053 10.045 47.2919 10.045 44.0652V34.5236C10.045 33.0524 10.1731 32.0538 10.4292 31.5243C10.6996 30.97 11.3399 30.3907 12.3573 29.783C12.9513 30.1739 13.3177 30.5471 13.4529 30.8989C13.5845 31.2187 13.6521 31.9757 13.6557 33.1661V42.5229C13.6557 43.3865 13.5276 43.9479 13.2715 44.2038C13.1506 44.3104 13.0438 44.3957 12.9585 44.4561C12.8695 44.5165 12.7984 44.5663 12.745 44.6089V44.9536C13.3142 45.373 13.8478 45.8101 14.3458 46.272C14.8474 46.7305 15.3134 47.2173 15.7438 47.729L20.3862 43.6565L19.9593 43.191L18.9846 44.0617V30.1668L19.632 29.7013L21.5992 31.2223V43.4575C21.5992 44.7546 21.7059 45.6466 21.9229 46.1299C22.1399 46.6167 22.6806 47.1498 23.5451 47.729L26.7289 45.2166L26.2415 44.6907ZM9.42959 34.545V43.0524C9.42959 44.5094 9.27307 45.476 8.96358 45.9486C8.65409 46.4213 8.03867 46.6594 7.11732 46.6594C7.13155 46.6594 7.07108 46.6594 6.9359 46.6487C6.80072 46.6416 6.59795 46.6309 6.3276 46.6167C7.1529 46.2933 7.70073 45.8349 7.97108 45.2379C8.22721 44.6693 8.35528 43.589 8.35528 41.997V36.4462C8.35528 34.6764 8.43709 33.5144 8.59717 32.9636C8.76081 32.4234 9.18413 31.8762 9.87426 31.3218C9.57544 31.997 9.42959 33.0702 9.42959 34.5414V34.545ZM18.3941 36.2116V44.4668C18.1379 44.7226 17.8676 44.8506 17.583 44.8506C17.1383 44.8506 16.8395 44.6551 16.6901 44.2642C16.5549 43.8733 16.4873 43.0773 16.4873 41.8726V31.9863L18.3941 30.6075V36.2045V36.2116Z" fill="#EAE0CE"></path>
<path d="M42.4522 28.8983C42.4522 28.8983 42.4949 28.9125 42.5269 28.8841C42.5589 28.8592 42.5945 28.8308 42.6301 28.7953C42.6657 28.7597 42.7048 28.7135 42.7582 28.6567L42.036 29.9253C41.9257 29.9076 41.8155 29.872 41.7052 29.8116C41.6127 29.7619 41.5131 29.6872 41.4064 29.5913C41.2997 29.4953 41.2036 29.3603 41.1218 29.1933C41.0044 29.2857 40.887 29.3887 40.7732 29.5024C40.6593 29.6162 40.5455 29.7583 40.4388 29.9253C40.2431 29.8756 40.051 29.8045 39.8554 29.7086C39.6846 29.6339 39.5068 29.5344 39.3218 29.4101C39.1368 29.2892 38.966 29.1329 38.8131 28.9481C38.7455 29.0511 38.6708 29.14 38.5854 29.2146C38.5 29.2892 38.4147 29.3496 38.3328 29.3923C38.2403 29.442 38.1443 29.4847 38.0411 29.5202C38.1834 29.4598 38.2973 29.3603 38.3826 29.2146C38.468 29.0725 38.532 28.9196 38.5783 28.7633C38.6245 28.6069 38.6566 28.4541 38.6743 28.3084C38.6921 28.1592 38.6992 28.049 38.6992 27.9744L38.7135 24.211V23.9836C38.8913 23.9516 39.0692 23.8877 39.2471 23.7917C39.4 23.7064 39.5637 23.5927 39.7415 23.4435C39.9194 23.2942 40.0937 23.0952 40.2609 22.8429L40.8941 23.1983V21.8692C40.7661 21.8017 40.6451 21.7128 40.5277 21.6027L41.2997 20.7427C41.4348 20.9275 41.5593 21.0661 41.6732 21.1549C41.787 21.2437 41.8902 21.3077 41.9827 21.3504C42.0858 21.393 42.1783 21.4143 42.2601 21.4143C42.2423 21.457 42.221 21.4961 42.1961 21.528C42.1712 21.5636 42.1392 21.5991 42.1072 21.6346C42.0716 21.6737 42.036 21.7128 41.9933 21.7555V27.8251C41.9933 28.0206 42.0076 28.1805 42.036 28.312C42.0645 28.4435 42.1036 28.5501 42.1499 28.6282C42.1961 28.71 42.2459 28.7704 42.3028 28.813C42.3562 28.8557 42.406 28.8841 42.4487 28.9019L42.4522 28.8983ZM40.8906 24.8791C40.8834 24.7086 40.8514 24.5948 40.8016 24.538C40.7518 24.4776 40.6736 24.4172 40.574 24.3496L39.802 23.8948V27.8749C39.802 28.0845 39.8554 28.2551 39.9657 28.383C40.0759 28.511 40.204 28.6105 40.3463 28.6887C40.4993 28.7811 40.6807 28.845 40.8906 28.877V24.8862V24.8791Z" fill="#EAE0CE"></path>
<path d="M47.1052 28.8982C47.1052 28.8982 47.1479 28.9124 47.1799 28.884C47.2119 28.8591 47.2475 28.8307 47.283 28.7952C47.3186 28.7596 47.3578 28.7134 47.4111 28.6566L46.689 29.9252C46.5787 29.9075 46.4684 29.8719 46.3581 29.8115C46.2657 29.7618 46.166 29.6871 46.0593 29.5912C45.9526 29.4952 45.8566 29.3602 45.7747 29.1932C45.6573 29.2856 45.54 29.3886 45.4261 29.5023C45.3123 29.616 45.1985 29.7582 45.0917 29.9252C44.8961 29.8755 44.704 29.8044 44.5083 29.7084C44.3376 29.6338 44.1597 29.5343 43.9747 29.4099C43.7898 29.2891 43.619 29.1328 43.466 28.948C43.3984 29.051 43.3237 29.1399 43.2384 29.2145C43.153 29.2891 43.0676 29.3495 42.9858 29.3922C42.8933 29.4419 42.7973 29.4846 42.6941 29.5201C42.8364 29.4597 42.9502 29.3602 43.0356 29.2145C43.121 29.0723 43.185 28.9195 43.2312 28.7632C43.2775 28.6068 43.3095 28.454 43.3273 28.3083C43.3451 28.1591 43.3522 28.0489 43.3522 27.9743L43.3664 23.9693C43.2988 23.9373 43.2348 23.8982 43.1779 23.8627C43.1174 23.8236 43.0534 23.7703 42.9858 23.7028L43.7613 22.8428C43.8965 23.0276 44.021 23.1662 44.1348 23.255C44.2486 23.3438 44.3518 23.4078 44.4443 23.4504C44.5475 23.4931 44.64 23.5144 44.7218 23.5144C44.704 23.5571 44.6826 23.5961 44.6577 23.6281C44.6328 23.6637 44.6008 23.6992 44.5688 23.7347C44.5368 23.7703 44.4977 23.8129 44.455 23.8556V27.8712C44.455 28.0809 44.5083 28.2514 44.6186 28.3794C44.7289 28.5073 44.8569 28.6068 44.9992 28.685C45.1522 28.7774 45.3336 28.8414 45.5435 28.8733V23.9693C45.483 23.9373 45.4226 23.8982 45.3585 23.8627C45.2945 23.8236 45.2305 23.7703 45.1629 23.7028L45.949 22.8428C46.0842 23.0276 46.2087 23.1662 46.3226 23.255C46.4364 23.3438 46.5396 23.4078 46.6321 23.4504C46.7352 23.4931 46.8277 23.5144 46.9095 23.5144C46.8917 23.5571 46.8704 23.5961 46.8455 23.6281C46.8206 23.6601 46.7886 23.6992 46.7566 23.7347C46.721 23.7738 46.6854 23.8129 46.6427 23.8556V27.8215C46.6427 28.0169 46.657 28.1768 46.6854 28.3083C46.7139 28.4398 46.753 28.5464 46.7992 28.6246C46.8455 28.7063 46.8953 28.7667 46.9522 28.8094C47.0056 28.852 47.0554 28.8804 47.0981 28.8982H47.1052Z" fill="#EAE0CE"></path>
<path d="M70.6975 45.6185L71.9319 44.627L71.5263 44.1828L70.2813 45.1423L69.9753 44.7905V43.6675C69.9824 43.5112 69.9931 43.3584 69.9931 43.1949V37.4842C69.9931 36.2973 69.8722 35.4444 69.6267 34.9327C69.4097 34.4209 68.8548 33.831 67.9654 33.17L63.9492 36.4501V31.3044C63.9492 30.4799 64.063 29.8545 64.2943 29.4209C64.5255 28.9874 64.9844 28.5716 65.6745 28.1665L65.5109 27.8218C64.0097 28.0634 62.8891 28.632 62.1456 29.524C61.3737 28.8097 60.68 28.3371 60.0575 28.1061L59.8334 28.4899C60.335 28.9234 60.6587 29.3214 60.8081 29.6839C60.9717 30.0499 61.05 30.6007 61.05 31.3435V44.8154L59.9152 45.7678L62.3271 47.7329L64.8599 45.8708L63.9492 44.8189V37.1004L66.1405 35.3804C66.5461 35.7322 66.8093 36.0556 66.9302 36.3541C67.0121 36.5958 67.0512 37.008 67.0512 37.5908V44.4991C67.0512 44.6128 67.0512 44.7159 67.0441 44.826L65.9378 45.7535L66.9018 46.5389L67.0085 46.6278L67.0654 46.6739L68.3461 47.7187L70.6868 45.6292L70.6975 45.6185Z" fill="#EAE0CE"></path>
<path d="M0.0524502 30.7745C-0.196563 31.766 0.497116 29.8541 0.956012 29.7049C1.41491 29.5556 3.97263 33.3048 5.26394 32.8854C6.55881 32.4661 8.75012 29.9572 9.06317 29.7333C9.37621 29.5094 7.4517 30.4583 6.81493 29.3175C6.17461 28.1768 4.49556 26.3929 3.56353 26.734C2.63151 27.0752 0.51846 28.9089 0.0524502 30.7745Z" fill="#EAE0CE"></path>
<path d="M33.4523 25.1528H15.6727V25.5082H33.4523V25.1528Z" fill="#EAE0CE"></path>
<path d="M69.7761 25.1528H51.9966V25.5082H69.7761V25.1528Z" fill="#EAE0CE"></path>
</svg>
