<svg width="23" height="22" viewBox="0 0 23 22" fill="none" xmlns="http://www.w3.org/2000/svg">
<path d="M9.42578 21.168C8.69922 21.168 8.09375 20.8789 7.60938 20.3008L1.5625 12.9766C1.35156 12.7344 1.20312 12.5 1.11719 12.2734C1.03125 12.0469 0.988281 11.8125 0.988281 11.5703C0.988281 11.0156 1.17188 10.5586 1.53906 10.1992C1.91406 9.83203 2.38281 9.64844 2.94531 9.64844C3.57031 9.64844 4.08984 9.90234 4.50391 10.4102L9.37891 16.4453L18.9531 1.31641C19.1953 0.949219 19.4453 0.691406 19.7031 0.542969C19.9688 0.386719 20.293 0.308594 20.6758 0.308594C21.2383 0.308594 21.7031 0.488281 22.0703 0.847656C22.4375 1.20703 22.6211 1.66016 22.6211 2.20703C22.6211 2.41016 22.5859 2.62109 22.5156 2.83984C22.4453 3.05859 22.3359 3.28516 22.1875 3.51953L11.2773 20.2188C10.8477 20.8516 10.2305 21.168 9.42578 21.168Z" fill="#720004"></path>
</svg>
