<svg width="25" height="43" viewBox="0 0 25 43" fill="none" xmlns="http://www.w3.org/2000/svg">
<path d="M0.960938 21.373C0.960938 21.0638 1.0179 20.779 1.13184 20.5186C1.24577 20.2419 1.41667 19.9896 1.64453 19.7617L21.0049 0.816406C21.4443 0.393229 21.9733 0.181641 22.5918 0.181641C23.015 0.181641 23.3893 0.279297 23.7148 0.474609C24.0566 0.669922 24.3252 0.938477 24.5205 1.28027C24.7321 1.60579 24.8379 1.98014 24.8379 2.40332C24.8379 3.00553 24.6182 3.53451 24.1787 3.99023L6.40527 21.373L24.1787 38.7559C24.6182 39.2116 24.8379 39.7406 24.8379 40.3428C24.8379 40.766 24.7321 41.1403 24.5205 41.4658C24.3252 41.8076 24.0566 42.0762 23.7148 42.2715C23.3893 42.4668 23.015 42.5645 22.5918 42.5645C21.9733 42.5645 21.4443 42.3447 21.0049 41.9053L1.64453 22.9844C1.41667 22.7565 1.24577 22.5124 1.13184 22.252C1.0179 21.9753 0.960938 21.6823 0.960938 21.373Z" fill="#EAE0CE"></path>
</svg>
