<svg width="25" height="43" viewBox="0 0 25 43" fill="none" xmlns="http://www.w3.org/2000/svg">
<path d="M24.0635 21.373C24.0635 21.6823 23.9984 21.9753 23.8682 22.252C23.7542 22.5124 23.5833 22.7565 23.3555 22.9844L4.01953 41.9053C3.58008 42.3447 3.04297 42.5645 2.4082 42.5645C2.0013 42.5645 1.62695 42.4668 1.28516 42.2715C0.943359 42.0762 0.674805 41.8076 0.479492 41.4658C0.28418 41.1403 0.186523 40.766 0.186523 40.3428C0.186523 39.7406 0.398112 39.2116 0.821289 38.7559L18.5947 21.373L0.821289 3.99023C0.398112 3.53451 0.186523 3.00553 0.186523 2.40332C0.186523 1.98014 0.28418 1.60579 0.479492 1.28027C0.674805 0.938477 0.943359 0.669922 1.28516 0.474609C1.62695 0.279297 2.0013 0.181641 2.4082 0.181641C3.04297 0.181641 3.58008 0.393229 4.01953 0.816406L23.3555 19.7617C23.5833 19.9896 23.7542 20.2419 23.8682 20.5186C23.9984 20.779 24.0635 21.0638 24.0635 21.373Z" fill="#EAE0CE"></path>
</svg>
