<svg width="33" height="23" viewBox="0 0 33 23" fill="none" xmlns="http://www.w3.org/2000/svg">
<path d="M16.4868 12.958C16.0562 12.958 15.6343 12.7778 15.2212 12.4175L2.05078 0.815918C2.75391 0.358887 3.646 0.130371 4.72705 0.130371H28.2598C29.3408 0.130371 30.2285 0.358887 30.9229 0.815918L17.7524 12.4175C17.3481 12.7778 16.9263 12.958 16.4868 12.958ZM0.930176 20.7231C0.824707 20.4771 0.741211 20.1958 0.679688 19.8794C0.618164 19.563 0.587402 19.1938 0.587402 18.772V4.21729C0.587402 3.76025 0.618164 3.36914 0.679688 3.04395C0.75 2.71875 0.824707 2.49023 0.903809 2.3584L10.686 10.9805L0.930176 20.7231ZM4.33154 22.8589C3.84814 22.8589 3.41748 22.8062 3.03955 22.7007C2.67041 22.5952 2.36279 22.4546 2.1167 22.2788L12.1494 12.2461L14.0742 13.96C14.4609 14.2939 14.8564 14.5488 15.2607 14.7246C15.665 14.8916 16.0737 14.9751 16.4868 14.9751C16.8999 14.9751 17.3086 14.8916 17.7129 14.7246C18.126 14.5488 18.5259 14.2939 18.9126 13.96L20.8374 12.2461L30.8701 22.2788C30.624 22.4546 30.312 22.5952 29.9341 22.7007C29.5649 22.8062 29.1387 22.8589 28.6553 22.8589H4.33154ZM32.0566 20.7231L22.3008 10.9805L32.083 2.3584C32.1533 2.49023 32.2236 2.71875 32.2939 3.04395C32.3643 3.36914 32.3994 3.76025 32.3994 4.21729V18.772C32.3994 19.1938 32.3643 19.563 32.2939 19.8794C32.2324 20.1958 32.1533 20.4771 32.0566 20.7231Z" fill="#EAE0CE"></path>
</svg>
