<svg width="26" height="26" viewBox="0 0 26 26" fill="none" xmlns="http://www.w3.org/2000/svg">
<g clip-path="url('#clip0_286_112')">
<path d="M12.9617 25.9937C11.1858 25.9937 9.40988 26.0107 7.63529 25.9898C3.2791 25.9388 0.14385 22.9606 0.0511377 18.6182C-0.03374 14.6769 -0.0050122 10.729 0.0863946 6.78774C0.167355 3.32734 3.347 0.13223 6.79696 0.0629695C10.952 -0.0206654 15.1111 -0.0193586 19.2661 0.0629695C22.6639 0.130923 25.8722 3.35348 25.9388 6.75899C26.0198 10.9172 26.0198 15.0794 25.9388 19.2376C25.8722 22.6418 22.6573 25.8251 19.2609 25.9375C17.1638 26.0081 15.0614 25.9506 12.9617 25.9506C12.9617 25.965 12.9617 25.978 12.9617 25.9924V25.9937ZM13.04 19.6845C16.7316 19.6858 19.7676 16.6475 19.7676 12.9519C19.7676 9.25366 16.7276 6.2232 13.0322 6.23758C9.36288 6.25195 6.34123 9.26804 6.33078 12.9297C6.31903 16.6148 9.36549 19.6819 13.04 19.6832V19.6845ZM18.3899 5.90565C18.3677 6.80865 19.0533 7.5496 19.9321 7.57312C20.7561 7.59534 21.5017 6.87007 21.5291 6.01673C21.5578 5.13072 20.854 4.37409 19.9817 4.3571C19.1382 4.34011 18.4095 5.04839 18.3886 5.90565H18.3899Z" fill="#EAE0CE"></path>
<path d="M8.76849 12.932C8.77894 15.3209 10.6841 17.2275 13.0568 17.2249C15.4464 17.2223 17.3842 15.2608 17.3633 12.8654C17.3424 10.5027 15.4151 8.61962 13.0241 8.62354C10.6384 8.62746 8.75805 10.5315 8.7698 12.932H8.76849Z" fill="white"></path>
<path d="M8.76852 12.932C8.75807 10.5302 10.6371 8.62615 13.0228 8.62354C15.4151 8.61962 17.3412 10.5027 17.3621 12.8654C17.383 15.2608 15.4464 17.2223 13.0555 17.2249C10.6828 17.2275 8.77766 15.3209 8.76721 12.932H8.76852Z" fill="#EAE0CE"></path>
</g>
<defs>
<clipPath id="clip0_286_112">
<rect width="26" height="26" fill="white"></rect>
</clipPath>
</defs>
</svg>
