<svg width="48" height="25" viewBox="0 0 48 25" fill="none" xmlns="http://www.w3.org/2000/svg">
<path d="M2.03906 24.125C1.55469 24.125 1.14062 23.9531 0.796875 23.6094C0.453125 23.25 0.28125 22.8203 0.28125 22.3203C0.28125 21.8359 0.453125 21.4219 0.796875 21.0781C1.14062 20.7344 1.55469 20.5625 2.03906 20.5625H45.9141C46.3984 20.5625 46.8125 20.7344 47.1562 21.0781C47.5156 21.4219 47.6953 21.8359 47.6953 22.3203C47.6953 22.8203 47.5156 23.25 47.1562 23.6094C46.8125 23.9531 46.3984 24.125 45.9141 24.125H2.03906ZM2.03906 13.8828C1.55469 13.8828 1.14062 13.7109 0.796875 13.3672C0.453125 13.0234 0.28125 12.6094 0.28125 12.125C0.28125 11.625 0.453125 11.2031 0.796875 10.8594C1.14062 10.5 1.55469 10.3203 2.03906 10.3203H45.9141C46.3984 10.3203 46.8125 10.5 47.1562 10.8594C47.5156 11.2031 47.6953 11.625 47.6953 12.125C47.6953 12.6094 47.5156 13.0234 47.1562 13.3672C46.8125 13.7109 46.3984 13.8828 45.9141 13.8828H2.03906ZM2.03906 3.66406C1.55469 3.66406 1.14062 3.49219 0.796875 3.14844C0.453125 2.80469 0.28125 2.39062 0.28125 1.90625C0.28125 1.40625 0.453125 0.984375 0.796875 0.640625C1.14062 0.296875 1.55469 0.125 2.03906 0.125H45.9141C46.3984 0.125 46.8125 0.296875 47.1562 0.640625C47.5156 0.984375 47.6953 1.40625 47.6953 1.90625C47.6953 2.39062 47.5156 2.80469 47.1562 3.14844C46.8125 3.49219 46.3984 3.66406 45.9141 3.66406H2.03906Z" fill="#720004"></path>
</svg>
