<svg width="29" height="28" viewBox="0 0 29 28" fill="none" xmlns="http://www.w3.org/2000/svg">
<path d="M8.3623 20.0596C6.95605 18.6533 5.69141 17.1738 4.56836 15.6211C3.44531 14.0684 2.55664 12.5205 1.90234 10.9775C1.24805 9.4248 0.920898 7.94531 0.920898 6.53906C0.920898 5.60156 1.08203 4.72266 1.4043 3.90234C1.73633 3.07227 2.25879 2.31543 2.97168 1.63184C3.85059 0.782227 4.79297 0.357422 5.79883 0.357422C6.18945 0.357422 6.56055 0.44043 6.91211 0.606445C7.27344 0.762695 7.57617 1.0166 7.82031 1.36816L10.9697 5.80664C11.2236 6.14844 11.4092 6.46582 11.5264 6.75879C11.6436 7.05176 11.7021 7.33008 11.7021 7.59375C11.7021 7.92578 11.6094 8.24805 11.4238 8.56055C11.2383 8.87305 10.9844 9.19531 10.6621 9.52734L9.62207 10.5967C9.47559 10.7432 9.40234 10.9238 9.40234 11.1387C9.40234 11.2461 9.41699 11.3535 9.44629 11.4609C9.48535 11.5586 9.52441 11.6465 9.56348 11.7246C9.79785 12.1738 10.2178 12.7549 10.8232 13.4678C11.4287 14.1807 12.0879 14.8984 12.8008 15.6211C13.5234 16.3438 14.2412 17.0078 14.9541 17.6133C15.667 18.209 16.2529 18.6289 16.7119 18.873C16.7803 18.9023 16.8633 18.9365 16.9609 18.9756C17.0684 19.0146 17.1807 19.0342 17.2979 19.0342C17.5225 19.0342 17.708 18.9561 17.8545 18.7998L18.8945 17.7744C19.2266 17.4424 19.5488 17.1885 19.8613 17.0127C20.1738 16.8271 20.4961 16.7344 20.8281 16.7344C21.0918 16.7344 21.3701 16.793 21.6631 16.9102C21.9561 17.0273 22.2734 17.2031 22.6152 17.4375L27.1123 20.6309C27.4541 20.875 27.6982 21.168 27.8447 21.5098C28.001 21.8418 28.0791 22.1934 28.0791 22.5645C28.0791 23.0625 27.9668 23.5557 27.7422 24.0439C27.5176 24.542 27.21 25.0059 26.8193 25.4355C26.1553 26.168 25.4131 26.7051 24.5928 27.0469C23.7725 27.3887 22.8887 27.5596 21.9414 27.5596C20.5449 27.5596 19.0654 27.2275 17.5029 26.5635C15.9404 25.8994 14.3779 25.001 12.8154 23.8682C11.2529 22.7354 9.76855 21.4658 8.3623 20.0596Z" fill="#EAE0CE"></path>
</svg>
